<?xml version="1.0" encoding="UTF-8"?>
<svg xmlns="http://www.w3.org/2000/svg" version="1.2" baseProfile="tiny-ps" viewBox="0 0 512 512">
<title>Kongu Vettuva Gounder</title>
<rect x="0" y="0" width="512" height="512" fill="#0B5E28"/>
<circle cx="255.50" cy="253.75" r="197.98" fill="#128A3C"/>
<circle cx="255.50" cy="253.75" r="182.50" fill="#FFFFFF"/>
<path fill="#D6202A" fill-rule="evenodd" d="M 176.50 139.00 C 178.31 140.27 179.61 141.66 180.94 143.41 C 187.81 152.10 196.69 155.56 207.50 157.00 C 211.13 157.38 214.79 157.57 218.44 157.78 C 242.19 159.21 266.21 162.71 283.14 181.20 C 284.50 182.75 285.76 184.35 287.00 186.00 C 287.30 186.39 287.59 186.78 287.89 187.18 C 289.69 189.63 291.26 192.21 292.78 194.84 C 292.87 195.00 292.87 195.00 293.31 195.75 C 295.27 199.24 296.48 202.69 298.00 206.50 C 308.73 195.78 319.45 185.05 330.50 174.00 C 328.64 172.52 326.98 171.36 324.91 170.28 C 324.63 170.12 324.34 169.97 324.05 169.81 C 323.15 169.33 322.25 168.85 321.35 168.38 C 320.73 168.04 320.12 167.72 319.50 167.39 C 318.00 166.59 316.50 165.79 315.00 165.00 C 315.00 164.67 315.00 164.34 315.00 164.00 C 320.92 162.34 326.83 160.74 332.77 159.18 C 333.17 159.07 333.56 158.97 333.96 158.87 C 336.02 158.33 338.08 157.79 340.13 157.25 C 342.25 156.70 344.37 156.15 346.49 155.59 C 348.13 155.16 349.76 154.72 351.41 154.30 C 352.19 154.09 352.97 153.89 353.75 153.69 C 354.83 153.40 355.92 153.12 357.01 152.83 C 357.32 152.75 357.64 152.66 357.98 152.57 C 359.69 152.13 361.23 151.91 363.00 152.00 C 361.15 160.44 359.14 168.84 357.08 177.25 C 356.67 178.95 356.26 180.66 355.85 182.36 C 355.35 184.44 354.85 186.52 354.33 188.60 C 354.14 189.38 353.95 190.18 353.76 190.97 C 353.50 192.06 353.24 193.15 352.96 194.24 C 352.89 194.56 352.81 194.88 352.74 195.22 C 352.51 196.12 352.51 196.12 352.00 197.50 C 351.75 197.58 351.75 197.58 350.50 198.00 C 347.37 193.38 344.23 188.76 341.00 184.00 C 338.64 186.02 336.40 188.03 334.22 190.22 C 333.91 190.52 333.61 190.83 333.29 191.15 C 332.29 192.15 331.29 193.15 330.29 194.15 C 329.58 194.85 328.88 195.55 328.19 196.25 C 326.73 197.71 325.26 199.17 323.81 200.63 C 321.93 202.50 320.06 204.38 318.18 206.25 C 316.74 207.69 315.30 209.13 313.86 210.58 C 313.17 211.27 312.47 211.96 311.78 212.65 C 310.81 213.62 309.86 214.58 308.89 215.54 C 308.61 215.83 308.32 216.12 308.02 216.41 C 307.89 216.54 307.89 216.54 307.23 217.21 C 307.00 217.43 306.78 217.66 306.55 217.90 C 306.00 218.50 306.00 218.50 305.50 219.50 C 305.83 219.54 306.17 219.59 306.51 219.65 C 312.54 221.09 317.87 225.06 322.50 229.00 C 322.75 229.21 322.99 229.41 323.24 229.62 C 336.83 241.13 345.26 259.41 347.00 277.00 C 348.07 290.85 346.65 304.23 343.81 317.81 C 341.37 329.60 340.54 340.94 346.95 351.67 C 348.29 353.70 349.87 355.52 351.48 357.33 C 353.09 359.18 353.20 360.45 353.17 362.84 C 352.94 364.43 352.43 365.29 351.31 366.42 C 349.45 367.76 347.64 368.16 345.38 367.85 C 342.29 366.99 340.22 365.25 338.00 363.00 C 337.85 362.85 337.85 362.85 337.08 362.10 C 334.80 359.69 331.50 355.45 331.50 352.00 C 331.33 351.98 331.33 351.98 330.47 351.86 C 325.41 351.11 320.38 350.18 315.35 349.25 C 313.86 348.96 312.37 348.69 310.87 348.42 C 309.92 348.24 308.97 348.06 308.02 347.89 C 307.80 347.85 307.80 347.85 306.67 347.64 C 306.26 347.56 305.85 347.49 305.43 347.41 C 305.06 347.34 304.70 347.27 304.33 347.20 C 303.50 347.00 303.50 347.00 303.00 346.50 C 302.27 346.42 301.55 346.37 300.81 346.32 C 296.49 345.96 292.25 345.11 287.98 344.32 C 287.04 344.15 286.09 343.98 285.14 343.81 C 283.13 343.44 281.12 343.07 279.11 342.70 C 273.81 341.73 268.52 340.76 263.23 339.81 C 262.69 339.71 262.16 339.61 261.61 339.51 C 254.13 338.15 246.66 336.81 239.18 335.51 C 238.75 335.43 238.31 335.36 237.85 335.27 C 233.73 334.56 229.60 333.84 225.48 333.13 C 224.00 332.87 222.51 332.61 221.03 332.35 C 220.01 332.18 219.00 332.00 218.00 331.83 C 217.40 331.73 216.81 331.63 216.21 331.52 C 215.69 331.43 215.18 331.34 214.65 331.25 C 213.50 331.00 213.50 331.00 213.00 330.50 C 212.17 330.39 211.34 330.31 210.50 330.25 C 208.06 330.06 208.06 330.06 207.50 329.50 C 207.47 328.49 207.46 327.48 207.47 326.47 C 207.47 325.92 207.48 325.37 207.48 324.80 C 207.49 324.37 207.50 323.94 207.50 323.50 C 209.21 322.93 210.00 323.07 211.75 323.38 C 211.90 323.40 211.90 323.40 212.60 323.52 C 213.54 323.69 214.47 323.85 215.41 324.02 C 216.09 324.13 216.76 324.25 217.44 324.37 C 219.28 324.68 221.12 325.00 222.96 325.32 C 224.53 325.60 226.09 325.88 227.66 326.14 C 233.11 327.09 238.56 328.05 244.00 329.00 C 244.82 329.14 245.65 329.29 246.47 329.44 C 257.52 331.38 268.58 333.34 279.63 335.31 C 282.74 335.87 285.83 336.42 288.94 336.97 C 293.45 337.77 297.96 338.57 302.47 339.38 C 304.18 339.69 305.89 339.99 307.61 340.30 C 309.61 340.65 311.61 341.01 313.61 341.37 C 314.33 341.50 315.06 341.63 315.79 341.76 C 320.23 342.55 324.62 343.44 329.00 344.50 C 328.92 344.11 328.84 343.71 328.76 343.31 C 327.09 334.89 327.90 326.32 328.86 317.88 C 331.39 295.54 331.42 270.98 316.87 252.31 C 315.95 251.18 314.98 250.09 314.00 249.00 C 313.62 248.57 313.24 248.15 312.85 247.71 C 306.94 241.41 298.88 236.96 290.40 235.28 C 288.14 235.63 286.97 237.16 285.39 238.73 C 285.04 239.08 284.68 239.43 284.31 239.78 C 283.11 240.96 281.92 242.14 280.72 243.32 C 279.87 244.16 279.00 245.00 278.14 245.84 C 275.57 248.37 273.00 250.91 270.44 253.44 C 269.47 254.40 268.50 255.35 267.53 256.31 C 263.26 260.53 259.00 264.75 254.74 268.99 C 253.69 270.02 252.66 271.06 251.62 272.10 C 251.49 272.22 251.49 272.22 250.83 272.88 C 246.64 277.04 242.43 281.18 238.21 285.31 C 233.87 289.56 229.56 293.82 225.25 298.11 C 222.84 300.51 220.43 302.90 217.99 305.28 C 215.90 307.30 213.84 309.34 211.80 311.40 C 210.75 312.45 209.71 313.50 208.64 314.51 C 201.92 320.95 201.92 320.95 201.63 325.26 C 201.65 327.50 201.93 329.64 202.31 331.84 C 202.59 333.56 202.62 335.26 202.63 337.00 C 202.64 337.52 202.65 338.05 202.66 338.60 C 202.36 341.19 200.76 342.86 198.98 344.66 C 198.57 345.06 198.17 345.48 197.75 345.89 C 197.31 346.33 196.88 346.77 196.44 347.21 C 195.99 347.67 195.53 348.12 195.08 348.57 C 194.13 349.52 193.19 350.48 192.24 351.42 C 191.03 352.63 189.81 353.85 188.60 355.07 C 187.68 356.01 186.74 356.94 185.80 357.88 C 185.35 358.33 184.91 358.77 184.46 359.23 C 183.84 359.86 183.22 360.48 182.59 361.10 C 182.23 361.45 181.88 361.81 181.51 362.18 C 180.47 363.02 179.81 363.31 178.50 363.50 C 177.56 359.29 176.96 355.03 176.35 350.75 C 176.19 349.56 176.01 348.36 175.84 347.15 C 175.73 346.38 175.62 345.62 175.51 344.85 C 175.49 344.67 175.49 344.67 175.35 343.76 C 175.31 343.43 175.26 343.10 175.22 342.75 C 175.17 342.46 175.13 342.17 175.09 341.87 C 174.99 340.91 174.99 339.96 175.00 339.00 C 174.45 338.94 173.90 338.88 173.32 338.82 C 171.26 338.61 169.19 338.39 167.13 338.18 C 166.24 338.08 165.35 337.99 164.46 337.89 C 163.17 337.75 161.88 337.62 160.59 337.49 C 160.21 337.44 159.81 337.40 159.41 337.36 C 156.77 337.08 154.13 336.80 151.50 336.50 C 151.38 335.63 151.38 335.63 151.50 334.50 C 152.29 333.46 152.29 333.46 153.41 332.36 C 153.62 332.15 153.82 331.94 154.03 331.74 C 154.70 331.06 155.38 330.39 156.06 329.73 C 156.53 329.26 157.00 328.80 157.47 328.33 C 158.44 327.35 159.43 326.38 160.41 325.40 C 161.69 324.16 162.94 322.90 164.21 321.65 C 165.41 320.45 166.60 319.26 167.81 318.07 C 168.04 317.85 168.27 317.62 168.50 317.38 C 169.16 316.74 169.81 316.10 170.46 315.45 C 170.83 315.08 171.20 314.72 171.59 314.35 C 172.85 313.18 173.59 312.94 175.25 312.95 C 175.62 312.95 175.97 312.95 176.34 312.95 C 176.74 312.96 177.12 312.96 177.52 312.96 C 178.34 312.96 179.17 312.95 180.00 312.95 C 181.29 312.94 182.59 312.94 183.88 312.95 C 192.01 313.02 192.01 313.02 194.37 311.23 C 195.65 309.33 195.59 307.69 195.40 305.51 C 195.37 305.16 195.34 304.81 195.31 304.45 C 194.94 299.83 194.36 295.24 193.79 290.64 C 193.67 289.62 193.54 288.60 193.42 287.57 C 193.08 284.81 192.74 282.04 192.40 279.27 C 192.19 277.52 191.97 275.77 191.76 274.02 C 191.72 273.73 191.69 273.44 191.65 273.13 C 191.57 272.54 191.50 271.94 191.43 271.35 C 189.81 258.02 188.16 244.71 186.50 231.38 C 186.47 231.06 186.43 230.72 186.38 230.38 C 185.57 223.84 184.76 217.30 183.94 210.76 C 183.75 209.24 183.56 207.71 183.38 206.18 C 183.04 203.50 182.71 200.84 182.37 198.17 C 181.63 192.38 180.94 186.59 180.42 180.78 C 180.24 178.77 180.03 176.77 179.84 174.76 C 179.74 173.69 179.65 172.62 179.57 171.54 C 179.18 166.18 178.83 162.03 174.76 158.21 C 173.93 157.50 173.09 156.81 172.23 156.13 C 170.59 154.72 169.53 152.88 168.50 151.00 C 168.33 150.71 168.16 150.41 167.99 150.10 C 166.84 147.81 166.59 145.53 167.00 143.00 C 167.70 141.08 168.81 139.96 170.63 139.03 C 172.60 138.32 174.52 138.29 176.50 139.00 Z M 185.50 166.50 C 185.37 170.30 185.87 174.00 186.35 177.76 C 186.44 178.51 186.53 179.25 186.63 180.00 C 186.83 181.63 187.03 183.25 187.24 184.88 C 187.57 187.52 187.90 190.16 188.23 192.81 C 188.65 196.21 189.07 199.60 189.50 203.00 C 190.43 210.38 191.34 217.75 192.25 225.11 C 192.28 225.41 192.32 225.71 192.36 226.02 C 192.70 228.76 193.04 231.50 193.38 234.25 C 193.87 238.21 194.37 242.18 194.85 246.15 C 196.19 256.85 197.51 267.55 198.82 278.24 C 198.91 279.04 199.01 279.82 199.11 280.62 C 199.50 283.79 199.88 286.96 200.28 290.14 C 200.38 291.07 200.50 292.00 200.62 292.93 C 200.75 294.02 200.88 295.11 201.01 296.20 C 201.07 296.68 201.13 297.14 201.19 297.63 C 201.24 298.03 201.28 298.43 201.34 298.85 C 201.51 300.07 201.75 301.29 202.00 302.50 C 203.90 301.73 205.09 300.44 206.50 299.00 C 206.97 298.54 207.44 298.06 207.90 297.60 C 208.15 297.35 208.40 297.10 208.66 296.85 C 208.92 296.58 209.19 296.31 209.46 296.05 C 210.06 295.44 210.66 294.85 211.25 294.25 C 211.57 293.93 211.89 293.62 212.22 293.29 C 219.32 286.19 226.43 279.10 233.53 272.00 C 234.57 270.95 235.63 269.90 236.67 268.86 C 236.88 268.64 237.09 268.44 237.31 268.23 C 240.69 264.84 244.07 261.46 247.46 258.08 C 250.94 254.60 254.42 251.13 257.90 247.65 C 259.85 245.69 261.81 243.75 263.75 241.79 C 265.59 239.97 267.43 238.13 269.26 236.29 C 269.94 235.62 270.61 234.95 271.28 234.28 C 272.20 233.36 273.12 232.44 274.04 231.52 C 274.31 231.25 274.57 231.00 274.85 230.72 C 276.31 229.25 277.67 227.73 278.96 226.10 C 279.50 225.50 279.50 225.50 280.50 225.00 C 281.24 214.85 276.25 204.31 269.88 196.66 C 268.79 195.41 267.65 194.21 266.50 193.00 C 266.19 192.66 265.89 192.31 265.57 191.96 C 252.96 178.32 231.73 175.53 214.37 173.26 C 206.28 172.21 198.55 171.03 190.83 168.29 C 189.65 167.88 188.47 167.49 187.28 167.09 C 186.69 166.90 186.09 166.70 185.50 166.50 Z"/>
</svg>
