<svg xmlns="http://www.w3.org/2000/svg" width="140" height="140" viewBox="0 0 140 140" role="img" aria-label="QR குறியீடு இடம்">
  <rect width="140" height="140" fill="#fff"/>
  <g fill="#241f1c">
    <rect x="10" y="10" width="34" height="34"/><rect x="18" y="18" width="18" height="18" fill="#fff"/><rect x="24" y="24" width="6" height="6" fill="#241f1c"/>
    <rect x="96" y="10" width="34" height="34"/><rect x="104" y="18" width="18" height="18" fill="#fff"/><rect x="110" y="24" width="6" height="6"/>
    <rect x="10" y="96" width="34" height="34"/><rect x="18" y="104" width="18" height="18" fill="#fff"/><rect x="24" y="110" width="6" height="6"/>
    <rect x="60" y="12" width="8" height="8"/><rect x="76" y="12" width="8" height="8"/><rect x="60" y="28" width="8" height="8"/>
    <rect x="88" y="60" width="8" height="8"/><rect x="104" y="60" width="8" height="8"/><rect x="120" y="76" width="8" height="8"/>
    <rect x="60" y="60" width="8" height="8"/><rect x="72" y="72" width="8" height="8"/><rect x="60" y="88" width="8" height="8"/>
    <rect x="60" y="104" width="8" height="8"/><rect x="76" y="120" width="8" height="8"/><rect x="96" y="104" width="8" height="8"/><rect x="112" y="112" width="8" height="8"/>
  </g>
</svg>
